<svg width="65" height="14" viewBox="0 0 65 14" fill="none" xmlns="http://www.w3.org/2000/svg">
<path d="M1.42969 7.15039L5.30273 8.63281V10.0215L0.363281 7.8418V6.92188L1.42969 7.15039ZM5.30273 5.9375L1.42969 7.44336L0.363281 7.64844V6.72852L5.30273 4.55469V5.9375ZM10.541 2.46875L7.21875 11.7324H6.11133L9.43945 2.46875H10.541ZM32.0977 4.66016V11H30.6797V4.66016H32.0977ZM30.5859 2.99609C30.5859 2.78125 30.6562 2.60352 30.7969 2.46289C30.9414 2.31836 31.1406 2.24609 31.3945 2.24609C31.6445 2.24609 31.8418 2.31836 31.9863 2.46289C32.1309 2.60352 32.2031 2.78125 32.2031 2.99609C32.2031 3.20703 32.1309 3.38281 31.9863 3.52344C31.8418 3.66406 31.6445 3.73438 31.3945 3.73438C31.1406 3.73438 30.9414 3.66406 30.7969 3.52344C30.6562 3.38281 30.5859 3.20703 30.5859 2.99609ZM37.5117 9.6875V2H38.9297V11H37.6465L37.5117 9.6875ZM33.3867 7.90039V7.77734C33.3867 7.29688 33.4434 6.85938 33.5566 6.46484C33.6699 6.06641 33.834 5.72461 34.0488 5.43945C34.2637 5.15039 34.5254 4.92969 34.834 4.77734C35.1426 4.62109 35.4902 4.54297 35.877 4.54297C36.2598 4.54297 36.5957 4.61719 36.8848 4.76562C37.1738 4.91406 37.4199 5.12695 37.623 5.4043C37.8262 5.67773 37.9883 6.00586 38.1094 6.38867C38.2305 6.76758 38.3164 7.18945 38.3672 7.6543V8.04688C38.3164 8.5 38.2305 8.91406 38.1094 9.28906C37.9883 9.66406 37.8262 9.98828 37.623 10.2617C37.4199 10.5352 37.1719 10.7461 36.8789 10.8945C36.5898 11.043 36.252 11.1172 35.8652 11.1172C35.4824 11.1172 35.1367 11.0371 34.8281 10.877C34.5234 10.7168 34.2637 10.4922 34.0488 10.2031C33.834 9.91406 33.6699 9.57422 33.5566 9.18359C33.4434 8.78906 33.3867 8.36133 33.3867 7.90039ZM34.7988 7.77734V7.90039C34.7988 8.18945 34.8242 8.45898 34.875 8.70898C34.9297 8.95898 35.0137 9.17969 35.127 9.37109C35.2402 9.55859 35.3867 9.70703 35.5664 9.81641C35.75 9.92188 35.9688 9.97461 36.2227 9.97461C36.543 9.97461 36.8066 9.9043 37.0137 9.76367C37.2207 9.62305 37.3828 9.43359 37.5 9.19531C37.6211 8.95312 37.7031 8.68359 37.7461 8.38672V7.32617C37.7227 7.0957 37.6738 6.88086 37.5996 6.68164C37.5293 6.48242 37.4336 6.30859 37.3125 6.16016C37.1914 6.00781 37.041 5.89062 36.8613 5.80859C36.6855 5.72266 36.4766 5.67969 36.2344 5.67969C35.9766 5.67969 35.7578 5.73438 35.5781 5.84375C35.3984 5.95312 35.25 6.10352 35.1328 6.29492C35.0195 6.48633 34.9355 6.70898 34.8809 6.96289C34.8262 7.2168 34.7988 7.48828 34.7988 7.77734ZM43.2012 11.1172C42.7324 11.1172 42.3086 11.041 41.9297 10.8887C41.5547 10.7324 41.2344 10.5156 40.9688 10.2383C40.707 9.96094 40.5059 9.63477 40.3652 9.25977C40.2246 8.88477 40.1543 8.48047 40.1543 8.04688V7.8125C40.1543 7.31641 40.2266 6.86719 40.3711 6.46484C40.5156 6.0625 40.7168 5.71875 40.9746 5.43359C41.2324 5.14453 41.5371 4.92383 41.8887 4.77148C42.2402 4.61914 42.6211 4.54297 43.0312 4.54297C43.4844 4.54297 43.8809 4.61914 44.2207 4.77148C44.5605 4.92383 44.8418 5.13867 45.0645 5.41602C45.291 5.68945 45.459 6.01562 45.5684 6.39453C45.6816 6.77344 45.7383 7.19141 45.7383 7.64844V8.25195H40.8398V7.23828H44.3438V7.12695C44.3359 6.87305 44.2852 6.63477 44.1914 6.41211C44.1016 6.18945 43.9629 6.00977 43.7754 5.87305C43.5879 5.73633 43.3379 5.66797 43.0254 5.66797C42.791 5.66797 42.582 5.71875 42.3984 5.82031C42.2188 5.91797 42.0684 6.06055 41.9473 6.24805C41.8262 6.43555 41.7324 6.66211 41.666 6.92773C41.6035 7.18945 41.5723 7.48438 41.5723 7.8125V8.04688C41.5723 8.32422 41.6094 8.58203 41.6836 8.82031C41.7617 9.05469 41.875 9.25977 42.0234 9.43555C42.1719 9.61133 42.3516 9.75 42.5625 9.85156C42.7734 9.94922 43.0137 9.99805 43.2832 9.99805C43.623 9.99805 43.9258 9.92969 44.1914 9.79297C44.457 9.65625 44.6875 9.46289 44.8828 9.21289L45.627 9.93359C45.4902 10.1328 45.3125 10.3242 45.0938 10.5078C44.875 10.6875 44.6074 10.834 44.291 10.9473C43.9785 11.0605 43.6152 11.1172 43.2012 11.1172ZM50.4141 9.72852V6.70508C50.4141 6.47852 50.373 6.2832 50.291 6.11914C50.209 5.95508 50.084 5.82812 49.916 5.73828C49.752 5.64844 49.5449 5.60352 49.2949 5.60352C49.0645 5.60352 48.8652 5.64258 48.6973 5.7207C48.5293 5.79883 48.3984 5.9043 48.3047 6.03711C48.2109 6.16992 48.1641 6.32031 48.1641 6.48828H46.7578C46.7578 6.23828 46.8184 5.99609 46.9395 5.76172C47.0605 5.52734 47.2363 5.31836 47.4668 5.13477C47.6973 4.95117 47.9727 4.80664 48.293 4.70117C48.6133 4.5957 48.9727 4.54297 49.3711 4.54297C49.8477 4.54297 50.2695 4.62305 50.6367 4.7832C51.0078 4.94336 51.2988 5.18555 51.5098 5.50977C51.7246 5.83008 51.832 6.23242 51.832 6.7168V9.53516C51.832 9.82422 51.8516 10.084 51.8906 10.3145C51.9336 10.541 51.9941 10.7383 52.0723 10.9062V11H50.625C50.5586 10.8477 50.5059 10.6543 50.4668 10.4199C50.4316 10.1816 50.4141 9.95117 50.4141 9.72852ZM50.6191 7.14453L50.6309 8.01758H49.6172C49.3555 8.01758 49.125 8.04297 48.9258 8.09375C48.7266 8.14062 48.5605 8.21094 48.4277 8.30469C48.2949 8.39844 48.1953 8.51172 48.1289 8.64453C48.0625 8.77734 48.0293 8.92773 48.0293 9.0957C48.0293 9.26367 48.0684 9.41797 48.1465 9.55859C48.2246 9.69531 48.3379 9.80273 48.4863 9.88086C48.6387 9.95898 48.8223 9.99805 49.0371 9.99805C49.3262 9.99805 49.5781 9.93945 49.793 9.82227C50.0117 9.70117 50.1836 9.55469 50.3086 9.38281C50.4336 9.20703 50.5 9.04102 50.5078 8.88477L50.9648 9.51172C50.918 9.67188 50.8379 9.84375 50.7246 10.0273C50.6113 10.2109 50.4629 10.3867 50.2793 10.5547C50.0996 10.7188 49.8828 10.8535 49.6289 10.959C49.3789 11.0645 49.0898 11.1172 48.7617 11.1172C48.3477 11.1172 47.9785 11.0352 47.6543 10.8711C47.3301 10.7031 47.0762 10.4785 46.8926 10.1973C46.709 9.91211 46.6172 9.58984 46.6172 9.23047C46.6172 8.89453 46.6797 8.59766 46.8047 8.33984C46.9336 8.07812 47.1211 7.85938 47.3672 7.68359C47.6172 7.50781 47.9219 7.375 48.2812 7.28516C48.6406 7.19141 49.0508 7.14453 49.5117 7.14453H50.6191ZM56.8652 9.2832C56.8652 9.14258 56.8301 9.01562 56.7598 8.90234C56.6895 8.78516 56.5547 8.67969 56.3555 8.58594C56.1602 8.49219 55.8711 8.40625 55.4883 8.32812C55.1523 8.25391 54.8438 8.16602 54.5625 8.06445C54.2852 7.95898 54.0469 7.83203 53.8477 7.68359C53.6484 7.53516 53.4941 7.35938 53.3848 7.15625C53.2754 6.95312 53.2207 6.71875 53.2207 6.45312C53.2207 6.19531 53.2773 5.95117 53.3906 5.7207C53.5039 5.49023 53.666 5.28711 53.877 5.11133C54.0879 4.93555 54.3438 4.79688 54.6445 4.69531C54.9492 4.59375 55.2891 4.54297 55.6641 4.54297C56.1953 4.54297 56.6504 4.63281 57.0293 4.8125C57.4121 4.98828 57.7051 5.22852 57.9082 5.5332C58.1113 5.83398 58.2129 6.17383 58.2129 6.55273H56.8008C56.8008 6.38477 56.7578 6.22852 56.6719 6.08398C56.5898 5.93555 56.4648 5.81641 56.2969 5.72656C56.1289 5.63281 55.918 5.58594 55.6641 5.58594C55.4219 5.58594 55.2207 5.625 55.0605 5.70312C54.9043 5.77734 54.7871 5.875 54.709 5.99609C54.6348 6.11719 54.5977 6.25 54.5977 6.39453C54.5977 6.5 54.6172 6.5957 54.6562 6.68164C54.6992 6.76367 54.7695 6.83984 54.8672 6.91016C54.9648 6.97656 55.0977 7.03906 55.2656 7.09766C55.4375 7.15625 55.6523 7.21289 55.9102 7.26758C56.3945 7.36914 56.8105 7.5 57.1582 7.66016C57.5098 7.81641 57.7793 8.01953 57.9668 8.26953C58.1543 8.51562 58.248 8.82812 58.248 9.20703C58.248 9.48828 58.1875 9.74609 58.0664 9.98047C57.9492 10.2109 57.7773 10.4121 57.5508 10.584C57.3242 10.752 57.0527 10.8828 56.7363 10.9766C56.4238 11.0703 56.0723 11.1172 55.6816 11.1172C55.1074 11.1172 54.6211 11.0156 54.2227 10.8125C53.8242 10.6055 53.5215 10.3418 53.3145 10.0215C53.1113 9.69727 53.0098 9.36133 53.0098 9.01367H54.375C54.3906 9.27539 54.4629 9.48438 54.5918 9.64062C54.7246 9.79297 54.8887 9.9043 55.084 9.97461C55.2832 10.041 55.4883 10.0742 55.6992 10.0742C55.9531 10.0742 56.166 10.041 56.3379 9.97461C56.5098 9.9043 56.6406 9.81055 56.7305 9.69336C56.8203 9.57227 56.8652 9.43555 56.8652 9.2832Z" fill="#22C55E"/>
<path d="M15.3867 9.6875V2H16.8047V11H15.5215L15.3867 9.6875ZM11.2617 7.90039V7.77734C11.2617 7.29688 11.3184 6.85938 11.4316 6.46484C11.5449 6.06641 11.709 5.72461 11.9238 5.43945C12.1387 5.15039 12.4004 4.92969 12.709 4.77734C13.0176 4.62109 13.3652 4.54297 13.752 4.54297C14.1348 4.54297 14.4707 4.61719 14.7598 4.76562C15.0488 4.91406 15.2949 5.12695 15.498 5.4043C15.7012 5.67773 15.8633 6.00586 15.9844 6.38867C16.1055 6.76758 16.1914 7.18945 16.2422 7.6543V8.04688C16.1914 8.5 16.1055 8.91406 15.9844 9.28906C15.8633 9.66406 15.7012 9.98828 15.498 10.2617C15.2949 10.5352 15.0469 10.7461 14.7539 10.8945C14.4648 11.043 14.127 11.1172 13.7402 11.1172C13.3574 11.1172 13.0117 11.0371 12.7031 10.877C12.3984 10.7168 12.1387 10.4922 11.9238 10.2031C11.709 9.91406 11.5449 9.57422 11.4316 9.18359C11.3184 8.78906 11.2617 8.36133 11.2617 7.90039ZM12.6738 7.77734V7.90039C12.6738 8.18945 12.6992 8.45898 12.75 8.70898C12.8047 8.95898 12.8887 9.17969 13.002 9.37109C13.1152 9.55859 13.2617 9.70703 13.4414 9.81641C13.625 9.92188 13.8438 9.97461 14.0977 9.97461C14.418 9.97461 14.6816 9.9043 14.8887 9.76367C15.0957 9.62305 15.2578 9.43359 15.375 9.19531C15.4961 8.95312 15.5781 8.68359 15.6211 8.38672V7.32617C15.5977 7.0957 15.5488 6.88086 15.4746 6.68164C15.4043 6.48242 15.3086 6.30859 15.1875 6.16016C15.0664 6.00781 14.916 5.89062 14.7363 5.80859C14.5605 5.72266 14.3516 5.67969 14.1094 5.67969C13.8516 5.67969 13.6328 5.73438 13.4531 5.84375C13.2734 5.95312 13.125 6.10352 13.0078 6.29492C12.8945 6.48633 12.8105 6.70898 12.7559 6.96289C12.7012 7.2168 12.6738 7.48828 12.6738 7.77734ZM21.0762 11.1172C20.6074 11.1172 20.1836 11.041 19.8047 10.8887C19.4297 10.7324 19.1094 10.5156 18.8438 10.2383C18.582 9.96094 18.3809 9.63477 18.2402 9.25977C18.0996 8.88477 18.0293 8.48047 18.0293 8.04688V7.8125C18.0293 7.31641 18.1016 6.86719 18.2461 6.46484C18.3906 6.0625 18.5918 5.71875 18.8496 5.43359C19.1074 5.14453 19.4121 4.92383 19.7637 4.77148C20.1152 4.61914 20.4961 4.54297 20.9062 4.54297C21.3594 4.54297 21.7559 4.61914 22.0957 4.77148C22.4355 4.92383 22.7168 5.13867 22.9395 5.41602C23.166 5.68945 23.334 6.01562 23.4434 6.39453C23.5566 6.77344 23.6133 7.19141 23.6133 7.64844V8.25195H18.7148V7.23828H22.2188V7.12695C22.2109 6.87305 22.1602 6.63477 22.0664 6.41211C21.9766 6.18945 21.8379 6.00977 21.6504 5.87305C21.4629 5.73633 21.2129 5.66797 20.9004 5.66797C20.666 5.66797 20.457 5.71875 20.2734 5.82031C20.0938 5.91797 19.9434 6.06055 19.8223 6.24805C19.7012 6.43555 19.6074 6.66211 19.541 6.92773C19.4785 7.18945 19.4473 7.48438 19.4473 7.8125V8.04688C19.4473 8.32422 19.4844 8.58203 19.5586 8.82031C19.6367 9.05469 19.75 9.25977 19.8984 9.43555C20.0469 9.61133 20.2266 9.75 20.4375 9.85156C20.6484 9.94922 20.8887 9.99805 21.1582 9.99805C21.498 9.99805 21.8008 9.92969 22.0664 9.79297C22.332 9.65625 22.5625 9.46289 22.7578 9.21289L23.502 9.93359C23.3652 10.1328 23.1875 10.3242 22.9688 10.5078C22.75 10.6875 22.4824 10.834 22.166 10.9473C21.8535 11.0605 21.4902 11.1172 21.0762 11.1172ZM26.6953 9.88086L28.248 4.66016H29.7129L27.5098 11H26.5957L26.6953 9.88086ZM25.5059 4.66016L27.0879 9.9043L27.1641 11H26.25L24.0352 4.66016H25.5059ZM63.4395 7.38477L59.4961 5.91406V4.54883L64.5586 6.72266V7.64844L63.4395 7.38477ZM59.4961 8.65039L63.4512 7.15039L64.5586 6.91602V7.83594L59.4961 10.0156V8.65039Z" fill="white"/>
</svg>
